<mxfile host="drawio-plugin" modified="2023-09-13T19:38:53.396Z" agent="5.0 (Windows NT 10.0; Win64; x64) AppleWebKit/537.36 (KHTML, like Gecko) Chrome/111.0.0.0 Safari/537.36" etag="6EfRjEk6V_AsldttEuOO" version="20.5.3" type="embed"><diagram name="Seite-1" id="7ZUZYtHRUKzuWcFqMMXY"><mxGraphModel dx="871" dy="1720" grid="1" gridSize="10" guides="1" tooltips="1" connect="1" arrows="1" fold="1" page="1" pageScale="1" pageWidth="827" pageHeight="1169" math="0" shadow="0"><root><mxCell id="0"/><mxCell id="1" parent="0"/><mxCell id="44" value="" style="group" vertex="1" connectable="0" parent="1"><mxGeometry x="110" y="60" width="660" height="730" as="geometry"/></mxCell><mxCell id="40" value="" style="shape=folder;fontStyle=1;spacingTop=10;tabWidth=40;tabHeight=14;tabPosition=left;html=1;container=0;" vertex="1" parent="44"><mxGeometry y="60" width="660" height="670" as="geometry"/></mxCell><mxCell id="GFcY7IKzWbNjV1WnlHu0-1" value="EventManager" style="swimlane;fontStyle=1;align=center;verticalAlign=top;childLayout=stackLayout;horizontal=1;startSize=26;horizontalStack=0;resizeParent=1;resizeParentMax=0;resizeLast=0;collapsible=1;marginBottom=0;whiteSpace=wrap;html=1;container=0;" parent="44" vertex="1"><mxGeometry x="57.865853658536594" y="400" width="364.99999999999994" height="164" as="geometry"/></mxCell><mxCell id="8" style="edgeStyle=orthogonalEdgeStyle;rounded=0;orthogonalLoop=1;jettySize=auto;html=1;endArrow=diamondThin;endFill=1;entryX=0.2;entryY=0;entryDx=0;entryDy=0;entryPerimeter=0;" edge="1" parent="44" source="3" target="GFcY7IKzWbNjV1WnlHu0-1"><mxGeometry relative="1" as="geometry"/></mxCell><mxCell id="3" value="subscriberDictionary" style="swimlane;fontStyle=1;align=center;verticalAlign=top;childLayout=stackLayout;horizontal=1;startSize=26;horizontalStack=0;resizeParent=1;resizeParentMax=0;resizeLast=0;collapsible=1;marginBottom=0;container=0;" vertex="1" parent="44"><mxGeometry x="57.865853658536594" y="250" width="142.4390243902439" height="86" as="geometry"/></mxCell><mxCell id="13" value="EventObjectFactory" style="swimlane;fontStyle=1;align=center;verticalAlign=top;childLayout=stackLayout;horizontal=1;startSize=26;horizontalStack=0;resizeParent=1;resizeParentMax=0;resizeLast=0;collapsible=1;marginBottom=0;container=0;" vertex="1" parent="44"><mxGeometry x="284.8780487804878" y="90" width="160.24390243902437" height="138" as="geometry"/></mxCell><mxCell id="32" style="edgeStyle=orthogonalEdgeStyle;rounded=0;orthogonalLoop=1;jettySize=auto;html=1;endArrow=none;endFill=0;" edge="1" parent="44" source="19" target="GFcY7IKzWbNjV1WnlHu0-1"><mxGeometry relative="1" as="geometry"><Array as="points"><mxPoint x="462.92682926829275" y="490"/></Array></mxGeometry></mxCell><mxCell id="19" value="EventFactory" style="swimlane;fontStyle=1;align=center;verticalAlign=top;childLayout=stackLayout;horizontal=1;startSize=26;horizontalStack=0;resizeParent=1;resizeParentMax=0;resizeLast=0;collapsible=1;marginBottom=0;container=0;" vertex="1" parent="44"><mxGeometry x="222.56097560975604" y="280" width="284.8780487804878" height="86" as="geometry"/></mxCell><mxCell id="26" style="edgeStyle=orthogonalEdgeStyle;rounded=0;orthogonalLoop=1;jettySize=auto;html=1;endArrow=diamondThin;endFill=1;" edge="1" parent="44" source="13" target="19"><mxGeometry relative="1" as="geometry"/></mxCell><mxCell id="27" value="TypedDict" style="swimlane;fontStyle=0;childLayout=stackLayout;horizontal=1;startSize=26;fillColor=none;horizontalStack=0;resizeParent=1;resizeParentMax=0;resizeLast=0;collapsible=1;marginBottom=0;container=0;" vertex="1" parent="44"><mxGeometry x="57.865853658536594" y="142" width="124.6341463414634" height="34" as="geometry"/></mxCell><mxCell id="31" style="edgeStyle=orthogonalEdgeStyle;rounded=0;orthogonalLoop=1;jettySize=auto;html=1;endArrow=block;endFill=0;dashed=1;" edge="1" parent="44" source="3" target="27"><mxGeometry relative="1" as="geometry"/></mxCell><mxCell id="33" value="Event" style="swimlane;fontStyle=3;align=center;verticalAlign=top;childLayout=stackLayout;horizontal=1;startSize=26;horizontalStack=0;resizeParent=1;resizeParentMax=0;resizeLast=0;collapsible=1;marginBottom=0;container=0;" vertex="1" parent="44"><mxGeometry x="338.29268292682923" y="610" width="275.9756097560976" height="86" as="geometry"/></mxCell><mxCell id="39" style="edgeStyle=orthogonalEdgeStyle;rounded=0;orthogonalLoop=1;jettySize=auto;html=1;entryX=0.5;entryY=0;entryDx=0;entryDy=0;endArrow=block;endFill=0;dashed=1;" edge="1" parent="44" source="19" target="33"><mxGeometry relative="1" as="geometry"><Array as="points"><mxPoint x="498.5365853658536" y="473"/><mxPoint x="476.280487804878" y="473"/></Array></mxGeometry></mxCell><mxCell id="GFcY7IKzWbNjV1WnlHu0-2" value="- subscribedEvents: subscriberDictionary" style="text;strokeColor=none;fillColor=none;align=left;verticalAlign=top;spacingLeft=4;spacingRight=4;overflow=hidden;rotatable=0;points=[[0,0.5],[1,0.5]];portConstraint=eastwest;whiteSpace=wrap;html=1;container=0;" parent="44" vertex="1"><mxGeometry x="57.865853658536594" y="426" width="364.99999999999994" height="26" as="geometry"/></mxCell><mxCell id="GFcY7IKzWbNjV1WnlHu0-3" value="" style="line;strokeWidth=1;fillColor=none;align=left;verticalAlign=middle;spacingTop=-1;spacingLeft=3;spacingRight=3;rotatable=0;labelPosition=right;points=[];portConstraint=eastwest;strokeColor=inherit;container=0;" parent="44" vertex="1"><mxGeometry x="57.865853658536594" y="452" width="364.99999999999994" height="8" as="geometry"/></mxCell><mxCell id="GFcY7IKzWbNjV1WnlHu0-4" value="+ subscribeToEvent(subscriber: Event, eventName: str)" style="text;strokeColor=none;fillColor=none;align=left;verticalAlign=top;spacingLeft=4;spacingRight=4;overflow=hidden;rotatable=0;points=[[0,0.5],[1,0.5]];portConstraint=eastwest;whiteSpace=wrap;html=1;container=0;" parent="44" vertex="1"><mxGeometry x="57.865853658536594" y="460" width="364.99999999999994" height="26" as="geometry"/></mxCell><mxCell id="GFcY7IKzWbNjV1WnlHu0-5" value="- notifySubscribers(eventName: str, data: any)" style="text;strokeColor=none;fillColor=none;align=left;verticalAlign=top;spacingLeft=4;spacingRight=4;overflow=hidden;rotatable=0;points=[[0,0.5],[1,0.5]];portConstraint=eastwest;whiteSpace=wrap;html=1;container=0;" parent="44" vertex="1"><mxGeometry x="57.865853658536594" y="486" width="364.99999999999994" height="26" as="geometry"/></mxCell><mxCell id="GFcY7IKzWbNjV1WnlHu0-6" value="+ postEventUpdate(eventName: str, data: any)&lt;br&gt;" style="text;strokeColor=none;fillColor=none;align=left;verticalAlign=top;spacingLeft=4;spacingRight=4;overflow=hidden;rotatable=0;points=[[0,0.5],[1,0.5]];portConstraint=eastwest;whiteSpace=wrap;html=1;container=0;" parent="44" vertex="1"><mxGeometry x="57.865853658536594" y="512" width="364.99999999999994" height="26" as="geometry"/></mxCell><mxCell id="2" value="+ subscribeToEvent(subscriber: Event, eventName: str)" style="text;strokeColor=none;fillColor=none;align=left;verticalAlign=top;spacingLeft=4;spacingRight=4;overflow=hidden;rotatable=0;points=[[0,0.5],[1,0.5]];portConstraint=eastwest;whiteSpace=wrap;html=1;container=0;" vertex="1" parent="44"><mxGeometry x="57.865853658536594" y="538" width="364.99999999999994" height="26" as="geometry"/></mxCell><mxCell id="4" value="+ event: str" style="text;strokeColor=none;fillColor=none;align=left;verticalAlign=top;spacingLeft=4;spacingRight=4;overflow=hidden;rotatable=0;points=[[0,0.5],[1,0.5]];portConstraint=eastwest;container=0;" vertex="1" parent="44"><mxGeometry x="57.865853658536594" y="276" width="142.4390243902439" height="26" as="geometry"/></mxCell><mxCell id="7" value="+ subscribers: list" style="text;strokeColor=none;fillColor=none;align=left;verticalAlign=top;spacingLeft=4;spacingRight=4;overflow=hidden;rotatable=0;points=[[0,0.5],[1,0.5]];portConstraint=eastwest;container=0;" vertex="1" parent="44"><mxGeometry x="57.865853658536594" y="302" width="142.4390243902439" height="26" as="geometry"/></mxCell><mxCell id="5" value="" style="line;strokeWidth=1;fillColor=none;align=left;verticalAlign=middle;spacingTop=-1;spacingLeft=3;spacingRight=3;rotatable=0;labelPosition=right;points=[];portConstraint=eastwest;strokeColor=inherit;container=0;" vertex="1" parent="44"><mxGeometry x="57.865853658536594" y="328" width="142.4390243902439" height="8" as="geometry"/></mxCell><mxCell id="14" value="+ module: callable" style="text;strokeColor=none;fillColor=none;align=left;verticalAlign=top;spacingLeft=4;spacingRight=4;overflow=hidden;rotatable=0;points=[[0,0.5],[1,0.5]];portConstraint=eastwest;container=0;" vertex="1" parent="44"><mxGeometry x="284.8780487804878" y="116" width="160.24390243902437" height="26" as="geometry"/></mxCell><mxCell id="17" value="name: str" style="text;strokeColor=none;fillColor=none;align=left;verticalAlign=top;spacingLeft=4;spacingRight=4;overflow=hidden;rotatable=0;points=[[0,0.5],[1,0.5]];portConstraint=eastwest;container=0;" vertex="1" parent="44"><mxGeometry x="284.8780487804878" y="142" width="160.24390243902437" height="26" as="geometry"/></mxCell><mxCell id="18" value="subscribeTo: str" style="text;strokeColor=none;fillColor=none;align=left;verticalAlign=top;spacingLeft=4;spacingRight=4;overflow=hidden;rotatable=0;points=[[0,0.5],[1,0.5]];portConstraint=eastwest;container=0;" vertex="1" parent="44"><mxGeometry x="284.8780487804878" y="168" width="160.24390243902437" height="26" as="geometry"/></mxCell><mxCell id="15" value="" style="line;strokeWidth=1;fillColor=none;align=left;verticalAlign=middle;spacingTop=-1;spacingLeft=3;spacingRight=3;rotatable=0;labelPosition=right;points=[];portConstraint=eastwest;strokeColor=inherit;container=0;" vertex="1" parent="44"><mxGeometry x="284.8780487804878" y="194" width="160.24390243902437" height="8" as="geometry"/></mxCell><mxCell id="16" value="+ createEventObject() -&gt; object" style="text;strokeColor=none;fillColor=none;align=left;verticalAlign=top;spacingLeft=4;spacingRight=4;overflow=hidden;rotatable=0;points=[[0,0.5],[1,0.5]];portConstraint=eastwest;container=0;" vertex="1" parent="44"><mxGeometry x="284.8780487804878" y="202" width="160.24390243902437" height="26" as="geometry"/></mxCell><mxCell id="23" value="" style="line;strokeWidth=1;fillColor=none;align=left;verticalAlign=middle;spacingTop=-1;spacingLeft=3;spacingRight=3;rotatable=0;labelPosition=right;points=[];portConstraint=eastwest;strokeColor=inherit;container=0;" vertex="1" parent="44"><mxGeometry x="222.56097560975604" y="306" width="284.8780487804878" height="8" as="geometry"/></mxCell><mxCell id="24" value="+ setupEvent(module: Event, name: str, subscribeTo: str) " style="text;strokeColor=none;fillColor=none;align=left;verticalAlign=top;spacingLeft=4;spacingRight=4;overflow=hidden;rotatable=0;points=[[0,0.5],[1,0.5]];portConstraint=eastwest;container=0;" vertex="1" parent="44"><mxGeometry x="222.56097560975604" y="314" width="284.8780487804878" height="26" as="geometry"/></mxCell><mxCell id="25" value="- configurePostEventUpdate(instanceObject)" style="text;strokeColor=none;fillColor=none;align=left;verticalAlign=top;spacingLeft=4;spacingRight=4;overflow=hidden;rotatable=0;points=[[0,0.5],[1,0.5]];portConstraint=eastwest;container=0;" vertex="1" parent="44"><mxGeometry x="222.56097560975604" y="340" width="284.8780487804878" height="26" as="geometry"/></mxCell><mxCell id="36" value="" style="line;strokeWidth=1;fillColor=none;align=left;verticalAlign=middle;spacingTop=-1;spacingLeft=3;spacingRight=3;rotatable=0;labelPosition=right;points=[];portConstraint=eastwest;strokeColor=inherit;container=0;" vertex="1" parent="44"><mxGeometry x="338.29268292682923" y="636" width="275.9756097560976" height="8" as="geometry"/></mxCell><mxCell id="37" value="+ sendMessage(callbackMethod: callable, loop = True)" style="text;strokeColor=none;fillColor=none;align=left;verticalAlign=top;spacingLeft=4;spacingRight=4;overflow=hidden;rotatable=0;points=[[0,0.5],[1,0.5]];portConstraint=eastwest;whiteSpace=wrap;html=1;container=0;" vertex="1" parent="44"><mxGeometry x="338.29268292682923" y="644" width="275.9756097560976" height="26" as="geometry"/></mxCell><mxCell id="38" value="+ receiveMessage(data: any)" style="text;strokeColor=none;fillColor=none;align=left;verticalAlign=top;spacingLeft=4;spacingRight=4;overflow=hidden;rotatable=0;points=[[0,0.5],[1,0.5]];portConstraint=eastwest;whiteSpace=wrap;html=1;container=0;" vertex="1" parent="44"><mxGeometry x="338.29268292682923" y="670" width="275.9756097560976" height="26" as="geometry"/></mxCell><mxCell id="43" value="" style="html=1;verticalAlign=bottom;labelBackgroundColor=none;endArrow=circle;endFill=0;endSize=15;rounded=0;jumpSize=9;startSize=13;exitX=0.9;exitY=-0.006;exitDx=0;exitDy=0;exitPerimeter=0;" edge="1" parent="44" source="19"><mxGeometry width="160" relative="1" as="geometry"><mxPoint x="590" y="-10" as="sourcePoint"/><mxPoint x="479" as="targetPoint"/></mxGeometry></mxCell></root></mxGraphModel></diagram></mxfile>